<svg width="384" height="205" viewBox="0 0 384 205" fill="none" xmlns="http://www.w3.org/2000/svg">
<path d="M57.5436 60.1636C76.1337 32.6945 114.915 19.1828 150.959 22.467C186.8 25.7 219.804 45.2719 237.93 71.6612C256.107 97.8476 259.204 130.8 278.482 162.015C297.76 193.229 333.32 223.163 336.63 252.715C339.939 282.267 311.405 311.539 278.579 317.705C245.955 323.921 209.444 307.133 179.188 301.426C148.983 295.516 125.236 300.739 101.217 295.097C77.4005 289.507 53.2608 273.256 43.4395 250.694C33.821 228.183 38.5209 199.361 39.8419 164.287C41.2142 129.01 39.2076 87.4809 57.5436 60.1636Z" fill="#6C1827"/>
</svg>
