<svg width="199" height="189" viewBox="0 0 199 189" fill="none" xmlns="http://www.w3.org/2000/svg">
<path d="M221.756 -84.943C247.841 -68.3743 266.631 -40.3179 275.916 -11.157C284.98 17.783 284.758 48.0485 286.748 79.4186C288.959 111.01 293.38 143.484 277.021 160.274C260.663 177.284 223.524 178.168 195.449 181.04C167.153 184.133 147.7 189.214 128.467 188.993C109.235 188.551 90.0025 183.028 74.5282 172.866C58.8327 162.483 46.8954 147.24 41.3688 130.671C35.6212 114.102 36.2844 96.2082 27.2208 73.012C17.9362 49.8158 -0.854104 21.3177 0.0301459 -3.20404C1.13546 -27.7257 22.1364 -48.2709 46.8954 -65.7233C71.6544 -83.1757 99.9503 -97.7562 130.899 -102.395C161.848 -107.035 195.449 -101.733 221.756 -84.943Z" fill="#6C1827"/>
</svg>
