<svg width="341" height="78" viewBox="0 0 341 78" fill="none" xmlns="http://www.w3.org/2000/svg">
<g filter="url(#filter0_d)">
<rect x="189" y="18" width="148" height="44" rx="7" fill="#FFD312"/>
<path d="M18.3286 33.328C20.3766 33.328 21.9766 33.984 23.1286 35.296C24.2806 36.576 24.8566 38.144 24.8566 40C24.8566 41.76 24.3286 43.152 23.2726 44.176C22.2166 45.168 20.8566 45.664 19.1926 45.664C18.5526 45.664 18.0886 45.568 17.8006 45.376C17.5446 45.184 17.4166 44.832 17.4166 44.32C17.4166 43.488 17.8166 43.056 18.6166 43.024C20.6966 42.832 21.7366 41.808 21.7366 39.952C21.7366 38.96 21.4646 38.112 20.9206 37.408C20.3766 36.704 19.4966 36.352 18.2806 36.352C17.0006 36.352 15.8806 36.896 14.9206 37.984C13.9926 39.072 13.2566 40.432 12.7126 42.064C12.1686 43.664 11.8486 45.248 11.7526 46.816C11.5606 49.76 11.4646 52.544 11.4646 55.168C11.4646 56.48 11.3366 57.344 11.0806 57.76C10.8566 58.176 10.3926 58.384 9.68863 58.384C8.98463 58.384 8.48863 58.224 8.20063 57.904C7.94463 57.552 7.81663 56.96 7.81663 56.128L7.76863 46.96C7.76863 44.848 7.60863 42.064 7.28863 38.608C7.09663 36.592 6.98463 35.152 6.95263 34.288C6.92063 33.776 7.06463 33.392 7.38463 33.136C7.70463 32.848 8.15263 32.704 8.72863 32.704C9.72063 32.704 10.2486 33.184 10.3126 34.144C10.5046 36.16 10.6166 38.128 10.6486 40.048C11.1926 37.936 12.1366 36.288 13.4806 35.104C14.8246 33.92 16.4406 33.328 18.3286 33.328ZM53.4624 54.88C53.9104 54.944 54.2464 55.072 54.4704 55.264C54.6944 55.456 54.8064 55.808 54.8064 56.32C54.8064 56.8 54.6784 57.184 54.4224 57.472C54.1984 57.76 53.8784 57.904 53.4624 57.904C52.1504 57.904 51.1744 57.696 50.5344 57.28C49.9264 56.864 49.3984 56.08 48.9504 54.928C47.5104 57.264 44.9504 58.432 41.2704 58.432C38.6784 58.432 36.5824 57.856 34.9824 56.704C33.3824 55.552 32.2304 54.096 31.5264 52.336C30.8544 50.544 30.5184 48.656 30.5184 46.672C30.5184 44.528 30.9504 42.512 31.8144 40.624C32.6784 38.736 33.9424 37.216 35.6064 36.064C37.3024 34.912 39.3184 34.336 41.6544 34.336C43.2544 34.336 44.6464 34.656 45.8304 35.296C47.0144 35.936 47.9424 36.832 48.6144 37.984L48.8064 36.4C48.8704 35.216 49.4144 34.624 50.4384 34.624C51.0784 34.624 51.5584 34.784 51.8784 35.104C52.2304 35.392 52.3744 35.744 52.3104 36.16L52.1664 37.36C51.9424 38.704 51.7824 40.096 51.6864 41.536C51.5904 42.752 51.5424 44.384 51.5424 46.432V49.744C51.5424 51.12 51.5744 52.144 51.6384 52.816C51.7344 53.456 51.9104 53.952 52.1664 54.304C52.4224 54.656 52.8544 54.848 53.4624 54.88ZM47.8944 49.696C47.9264 48.192 47.9424 46.256 47.9424 43.888C47.9424 42.32 47.6064 41.056 46.9344 40.096C46.2624 39.104 45.4464 38.4 44.4864 37.984C43.5264 37.568 42.6144 37.36 41.7504 37.36C40.0544 37.36 38.6304 37.84 37.4784 38.8C36.3584 39.76 35.5264 40.96 34.9824 42.4C34.4704 43.84 34.2144 45.264 34.2144 46.672C34.2144 48.912 34.7584 50.928 35.8464 52.72C36.9664 54.48 38.7904 55.36 41.3184 55.36C43.2064 55.36 44.7584 54.88 45.9744 53.92C47.2224 52.928 47.8624 51.52 47.8944 49.696ZM72.9046 33.568C78.3126 33.568 81.0166 37.392 81.0166 45.04V56.272C81.0166 57.392 80.4246 57.952 79.2406 57.952C77.9606 57.952 77.3206 57.408 77.3206 56.32V44.992C77.3206 42.176 77.0006 40.112 76.3606 38.8C75.7206 37.456 74.5686 36.784 72.9046 36.784C71.1446 36.784 69.7046 37.456 68.5846 38.8C67.4646 40.144 66.6806 41.904 66.2326 44.08C65.9446 45.552 65.8006 47.36 65.8006 49.504L65.8486 56.608C65.8486 57.056 65.6886 57.408 65.3686 57.664C65.0486 57.888 64.6166 58 64.0726 58C63.4646 58 63.0006 57.872 62.6806 57.616C62.3606 57.36 62.2006 57.024 62.2006 56.608C62.2006 53.76 62.1366 50.288 62.0086 46.192C61.9126 43.824 61.8646 41.728 61.8646 39.904C61.8646 39.104 61.7686 38.48 61.5766 38.032C61.4166 37.552 61.0806 36.896 60.5686 36.064C60.4406 35.872 60.3766 35.648 60.3766 35.392C60.3766 35.008 60.5846 34.656 61.0006 34.336C61.4486 33.984 61.8806 33.808 62.2966 33.808C62.7126 33.808 63.1446 34.112 63.5926 34.72C63.9446 35.232 64.2646 35.856 64.5526 36.592C64.8726 37.296 65.0326 37.968 65.0326 38.608V39.136C65.6086 37.536 66.5366 36.208 67.8166 35.152C69.0966 34.096 70.7926 33.568 72.9046 33.568ZM99.2428 58.192C97.0028 58.192 94.9548 57.744 93.0988 56.848C91.2428 55.952 89.7548 54.576 88.6348 52.72C87.5148 50.864 86.9548 48.56 86.9548 45.808C86.9548 43.312 87.4668 41.152 88.4908 39.328C89.5148 37.504 90.9548 36.112 92.8108 35.152C94.6988 34.16 96.8908 33.664 99.3868 33.664C101.179 33.664 102.747 33.936 104.091 34.48C105.467 34.992 106.555 35.664 107.355 36.496V35.488C107.483 30.464 107.579 26.8 107.643 24.496C107.739 22.192 107.899 19.888 108.123 17.584C108.187 17.136 108.379 16.768 108.699 16.48C109.019 16.192 109.435 16.048 109.947 16.048C110.523 16.048 110.987 16.208 111.339 16.528C111.691 16.816 111.851 17.2 111.819 17.68C111.595 20.016 111.387 24.032 111.195 29.728C111.003 35.424 110.907 40.56 110.907 45.136C110.907 49.808 111.019 52.496 111.243 53.2C111.435 53.904 111.659 54.496 111.915 54.976C112.203 55.424 112.507 55.648 112.827 55.648C112.923 55.648 112.971 55.824 112.971 56.176C112.971 56.656 112.763 57.088 112.347 57.472C111.931 57.856 111.467 58.048 110.955 58.048C110.603 58.048 110.299 57.968 110.043 57.808C109.595 57.552 109.131 57.136 108.651 56.56C108.203 55.952 107.899 55.12 107.739 54.064C106.939 55.344 105.787 56.352 104.283 57.088C102.779 57.824 101.099 58.192 99.2428 58.192ZM99.1468 54.928C100.523 54.928 101.819 54.64 103.035 54.064C104.283 53.456 105.291 52.656 106.059 51.664C106.827 50.64 107.211 49.536 107.211 48.352C107.211 46.944 107.227 45.824 107.259 44.992L107.307 41.008C106.763 39.984 105.771 39.04 104.331 38.176C102.891 37.312 101.243 36.88 99.3868 36.88C96.7308 36.88 94.6028 37.68 93.0028 39.28C91.4028 40.88 90.6028 43.104 90.6028 45.952C90.6028 48 91.0188 49.696 91.8508 51.04C92.7148 52.384 93.8028 53.376 95.1148 54.016C96.4268 54.624 97.7708 54.928 99.1468 54.928ZM128.945 58.048C125.329 58.048 122.321 57.088 119.921 55.168C117.553 53.248 116.369 50.24 116.369 46.144C116.369 43.584 116.849 41.344 117.809 39.424C118.801 37.472 120.225 35.952 122.081 34.864C123.937 33.776 126.129 33.232 128.657 33.232C131.089 33.232 133.265 33.744 135.185 34.768C137.137 35.76 138.657 37.232 139.745 39.184C140.865 41.104 141.425 43.408 141.425 46.096C141.425 50 140.273 52.976 137.969 55.024C135.697 57.04 132.689 58.048 128.945 58.048ZM128.849 55.024C131.409 55.024 133.521 54.272 135.185 52.768C136.881 51.232 137.729 48.992 137.729 46.048C137.729 44.128 137.345 42.432 136.577 40.96C135.841 39.456 134.785 38.304 133.409 37.504C132.065 36.672 130.513 36.256 128.753 36.256C126.129 36.256 124.017 37.152 122.417 38.944C120.849 40.736 120.065 43.104 120.065 46.048C120.065 49.152 120.913 51.424 122.609 52.864C124.305 54.304 126.385 55.024 128.849 55.024ZM169.974 33.472C172.822 33.472 174.822 34.416 175.974 36.304C177.126 38.192 177.702 40.832 177.702 44.224C177.702 49.6 177.686 53.68 177.654 56.464C177.654 56.912 177.494 57.28 177.174 57.568C176.886 57.856 176.47 58 175.926 58C175.35 58 174.902 57.856 174.582 57.568C174.294 57.28 174.15 56.88 174.15 56.368V44.512C174.15 41.632 173.83 39.552 173.19 38.272C172.582 36.992 171.43 36.352 169.734 36.352C168.134 36.352 166.95 37.248 166.182 39.04C165.414 40.832 165.014 42.944 164.982 45.376V49.072V56.368C164.982 57.392 164.39 57.904 163.206 57.904C161.958 57.904 161.334 57.36 161.334 56.272L161.382 47.584V45.376C161.35 43.104 160.886 41.072 159.99 39.28C159.126 37.456 157.926 36.544 156.39 36.544C155.206 36.544 154.214 37.136 153.414 38.32C152.646 39.472 152.006 41.328 151.494 43.888C151.206 45.424 151.062 47.648 151.062 50.56V53.728V56.512C151.062 56.96 150.886 57.312 150.534 57.568C150.182 57.792 149.766 57.904 149.286 57.904C148.742 57.872 148.31 57.744 147.99 57.52C147.702 57.264 147.558 56.912 147.558 56.464C147.558 53.232 147.526 48.064 147.462 40.96V39.136C147.43 38.336 147.334 37.76 147.174 37.408C147.014 37.056 146.79 36.736 146.502 36.448C146.438 36.384 146.326 36.288 146.166 36.16C146.038 36.032 145.974 35.872 145.974 35.68C145.974 35.2 146.15 34.8 146.502 34.48C146.854 34.16 147.254 34 147.702 34C147.926 34 148.182 34.128 148.47 34.384C148.79 34.608 149.062 34.88 149.286 35.2C149.638 35.68 149.878 36.16 150.006 36.64C150.166 37.12 150.246 37.696 150.246 38.368V39.184C150.79 37.36 151.606 35.984 152.694 35.056C153.782 34.096 155.078 33.616 156.582 33.616C159.878 33.616 162.038 35.472 163.062 39.184C163.542 37.328 164.374 35.92 165.558 34.96C166.742 33.968 168.214 33.472 169.974 33.472Z" fill="#1D1D29"/>
<path d="M220.527 24.88C221.007 24.976 221.375 25.152 221.631 25.408C221.919 25.664 222.063 26.048 222.063 26.56C222.063 27.072 221.919 27.488 221.631 27.808C221.343 28.128 220.943 28.256 220.431 28.192C218.703 27.968 217.183 27.808 215.871 27.712C214.559 27.616 213.087 27.568 211.455 27.568C210.175 27.568 208.255 27.632 205.695 27.76C205.983 31.12 206.143 34.96 206.175 39.28C207.359 39.184 208.735 39.136 210.303 39.136C213.567 39.136 216.079 39.248 217.839 39.472C218.351 39.536 218.719 39.728 218.943 40.048C219.199 40.368 219.327 40.752 219.327 41.2C219.327 41.648 219.199 42.032 218.943 42.352C218.687 42.64 218.271 42.768 217.695 42.736C215.391 42.576 212.911 42.496 210.255 42.496C208.783 42.496 207.423 42.544 206.175 42.64C206.175 47.984 206.015 52.512 205.695 56.224C205.631 56.672 205.439 57.04 205.119 57.328C204.799 57.584 204.367 57.712 203.823 57.712C203.247 57.712 202.783 57.568 202.431 57.28C202.111 56.992 201.967 56.624 201.999 56.176C202.319 52.56 202.495 48.16 202.527 42.976L200.415 43.264C199.967 43.328 199.599 43.2 199.311 42.88C199.055 42.56 198.927 42.144 198.927 41.632C198.927 40.608 199.455 40.032 200.511 39.904C201.535 39.776 202.207 39.696 202.527 39.664C202.495 35.088 202.303 31.184 201.951 27.952L200.607 28C199.967 28.032 199.503 27.904 199.215 27.616C198.959 27.328 198.831 26.896 198.831 26.32C198.831 25.84 198.943 25.456 199.167 25.168C199.423 24.88 199.855 24.72 200.463 24.688L201.615 24.592L201.567 24.016C201.535 23.472 201.679 23.04 201.999 22.72C202.351 22.4 202.831 22.24 203.439 22.24C204.559 22.24 205.183 22.848 205.311 24.064L205.359 24.4C207.311 24.304 209.263 24.256 211.215 24.256C213.295 24.256 215.167 24.32 216.831 24.448C218.527 24.544 219.759 24.688 220.527 24.88ZM310.054 24.496C316.55 24.912 321.638 26.448 325.318 29.104C329.03 31.728 330.886 35.584 330.886 40.672C330.886 44.096 330.022 47.088 328.294 49.648C326.598 52.208 324.134 54.192 320.902 55.6C317.702 56.976 313.926 57.664 309.574 57.664H306.166C305.462 57.664 304.95 57.536 304.63 57.28C304.31 57.024 304.15 56.592 304.15 55.984C304.15 54.896 304.662 54.352 305.686 54.352H307.318L306.598 27.76H306.262C305.558 27.76 305.014 27.648 304.63 27.424C304.278 27.2 304.102 26.784 304.102 26.176C304.102 25.504 304.278 25.04 304.63 24.784C305.014 24.528 305.558 24.4 306.262 24.4H306.79C307.078 23.824 307.622 23.536 308.422 23.536C309.286 23.536 309.83 23.856 310.054 24.496ZM310.966 54.352C314.166 54.224 316.982 53.616 319.414 52.528C321.878 51.408 323.798 49.84 325.174 47.824C326.55 45.808 327.238 43.424 327.238 40.672C327.238 32.928 321.59 28.672 310.294 27.904L310.966 54.352Z" fill="#9E373B"/>
<path d="M250.546 53.5608C247.276 53.5608 243.781 52.2161 241.902 51.4941C241.56 51.3628 241.273 51.2522 241.053 51.1757C240.664 51.0401 240.271 50.9737 239.851 50.9737C238.8 50.9737 237.733 51.3835 236.498 51.8575C236.292 51.9362 236.083 52.0167 235.872 52.0954C234.947 52.4428 233.936 52.6266 232.947 52.6266C231.318 52.6266 229.952 52.1266 229.101 51.2192C227.59 49.6066 227.864 46.7149 229.001 44.851C230.148 42.9747 230.624 41.8763 230.654 41.6249C230.653 41.593 230.644 41.4937 230.634 41.3591C230.549 40.1911 230.32 37.0891 231.691 34.7508C232.782 32.8883 235.173 32.4974 236.987 32.4974C237.843 32.4974 238.462 32.5877 238.489 32.5916L238.636 32.6283C238.779 32.6783 238.907 32.7033 239.017 32.7033C239.51 32.7033 239.688 32.043 239.695 32.0147L239.733 31.9012C240.694 29.5814 244.104 27.832 247.665 27.832C250.002 27.832 254.452 28.6157 258.001 33.8641C260.54 37.6185 261.449 41.2482 260.702 44.6526C259.725 49.1091 256.25 51.6312 254.801 52.5088C253.649 53.2069 252.217 53.5608 250.546 53.5608ZM239.851 49.3589C240.454 49.3589 241.021 49.4543 241.584 49.6505C241.817 49.7317 242.12 49.8477 242.482 49.9877C244.263 50.6724 247.576 51.9467 250.546 51.9467C251.918 51.9467 253.068 51.6711 253.964 51.1282C255.235 50.358 258.282 48.1528 259.125 44.3066C259.773 41.3515 258.945 38.1422 256.664 34.7686C254.343 31.3369 251.147 29.4469 247.665 29.4469C244.507 29.4469 241.893 31.0084 241.245 32.4723C241.056 33.1516 240.38 34.3178 239.017 34.3178C238.752 34.3178 238.473 34.2714 238.188 34.1807C238.026 34.1608 237.57 34.1122 236.987 34.1122C235.848 34.1122 233.826 34.3015 233.083 35.5675C231.967 37.472 232.169 40.2099 232.245 41.2402C232.259 41.4313 232.268 41.5709 232.268 41.6496C232.268 42.281 231.633 43.6412 230.379 45.693C229.571 47.0163 229.338 49.1098 230.28 50.1143C230.814 50.6844 231.786 51.0111 232.947 51.0111C233.733 51.0111 234.57 50.8595 235.306 50.5835C235.513 50.5056 235.718 50.4269 235.919 50.3493C237.247 49.8405 238.5 49.3589 239.851 49.3589Z" fill="#1D1D29"/>
<path d="M253.287 41.9028C253.287 45.1589 250.647 47.8004 247.386 47.8004C244.129 47.8004 241.488 45.1593 241.488 41.9028C241.488 38.6441 244.129 36.0027 247.386 36.0027C250.647 36.0027 253.287 38.6441 253.287 41.9028Z" fill="#9E373B"/>
<g clip-path="url(#clip0)">
<path d="M274.771 27.4392C278.14 27.4392 281.741 28.7839 283.676 29.5059C284.029 29.6372 284.325 29.7478 284.551 29.8243C284.953 29.9599 285.358 30.0263 285.79 30.0263C286.873 30.0263 287.972 29.6165 289.244 29.1425C289.457 29.0638 289.672 28.9833 289.89 28.9046C290.842 28.5572 291.884 28.3734 292.903 28.3734C294.581 28.3734 295.988 28.8734 296.865 29.7808C298.422 31.3934 298.14 34.2851 296.968 36.149C295.787 38.0253 295.297 39.1237 295.265 39.3751C295.267 39.407 295.276 39.5063 295.286 39.6409C295.374 40.8089 295.61 43.9109 294.197 46.2492C293.073 48.1117 290.609 48.5026 288.741 48.5026C287.858 48.5026 287.221 48.4123 287.194 48.4084L287.042 48.3717C286.895 48.3217 286.763 48.2967 286.649 48.2967C286.141 48.2967 285.958 48.957 285.95 48.9853L285.911 49.0988C284.922 51.4186 281.408 53.168 277.739 53.168C275.332 53.168 270.746 52.3843 267.09 47.1359C264.474 43.3815 263.537 39.7518 264.307 36.3474C265.314 31.8909 268.894 29.3688 270.387 28.4912C271.574 27.7931 273.049 27.4392 274.771 27.4392ZM285.79 31.6411C285.169 31.6411 284.585 31.5457 284.005 31.3495C283.765 31.2683 283.452 31.1523 283.079 31.0123C281.245 30.3276 277.831 29.0533 274.771 29.0533C273.357 29.0533 272.172 29.3289 271.249 29.8718C269.94 30.642 266.8 32.8472 265.932 36.6934C265.264 39.6485 266.118 42.8578 268.468 46.2314C270.859 49.6631 274.151 51.5531 277.739 51.5531C280.993 51.5531 283.686 49.9916 284.354 48.5277C284.549 47.8484 285.245 46.6822 286.649 46.6822C286.923 46.6822 287.21 46.7286 287.503 46.8193C287.67 46.8392 288.14 46.8878 288.74 46.8878C289.914 46.8878 291.997 46.6985 292.762 45.4325C293.913 43.528 293.705 40.7901 293.627 39.7598C293.612 39.5687 293.603 39.4291 293.603 39.3504C293.603 38.719 294.257 37.3588 295.549 35.307C296.381 33.9837 296.622 31.8902 295.651 30.8857C295.101 30.3156 294.099 29.9889 292.903 29.9889C292.093 29.9889 291.231 30.1405 290.473 30.4165C290.259 30.4944 290.048 30.5731 289.841 30.6507C288.473 31.1595 287.182 31.6411 285.79 31.6411Z" fill="#1D1D29"/>
<path d="M271.947 39.0973C271.947 35.8412 274.667 33.1998 278.026 33.1998C281.382 33.1998 284.103 35.8408 284.103 39.0973C284.103 42.356 281.382 44.9974 278.026 44.9974C274.667 44.9974 271.947 42.356 271.947 39.0973Z" fill="#9E373B"/>
</g>
</g>
<defs>
<filter id="filter0_d" x="2.94826" y="16.048" width="338.052" height="53.952" filterUnits="userSpaceOnUse" color-interpolation-filters="sRGB">
<feFlood flood-opacity="0" result="BackgroundImageFix"/>
<feColorMatrix in="SourceAlpha" type="matrix" values="0 0 0 0 0 0 0 0 0 0 0 0 0 0 0 0 0 0 127 0" result="hardAlpha"/>
<feOffset dy="4"/>
<feGaussianBlur stdDeviation="2"/>
<feColorMatrix type="matrix" values="0 0 0 0 0 0 0 0 0 0 0 0 0 0 0 0 0 0 0.25 0"/>
<feBlend mode="normal" in2="BackgroundImageFix" result="effect1_dropShadow"/>
<feBlend mode="normal" in="SourceGraphic" in2="effect1_dropShadow" result="shape"/>
</filter>
<clipPath id="clip0">
<rect width="34" height="33" fill="white" transform="translate(298 57) rotate(-180)"/>
</clipPath>
</defs>
</svg>
