<svg width="215" height="215" viewBox="0 0 215 215" fill="none" xmlns="http://www.w3.org/2000/svg">
<path d="M29.7402 191.333H43.0767V127.318H29.7402V191.333Z" fill="#FFD312"/>
<path d="M182.574 141.188C184.708 139.588 184.975 136.387 183.375 134.253C179.907 129.719 177.24 128.385 165.771 134.52L142.565 148.656C135.364 152.391 116.96 151.324 108.958 151.324C108.958 151.324 127.896 152.657 120.427 141.455C116.693 135.854 110.291 132.653 103.357 132.653H92.9544C86.8196 132.653 80.9517 130.786 76.1506 127.318C64.9481 118.516 43.0767 135.32 43.0767 135.32V183.331H80.4181C85.7528 183.331 91.0871 182.797 96.4217 181.997L131.096 176.662C132.163 176.662 133.497 176.396 134.563 176.396C137.497 176.129 139.898 174.529 142.032 172.661L182.574 141.188Z" fill="#FFD312"/>
<path d="M197.156 93.1668H17.9894L30.8894 111.083H184.256L197.156 93.1668Z" fill="#6C1827"/>
<path d="M186.406 93.1668H17.9894L30.8894 111.083H173.506L186.406 93.1668Z" fill="#9E373B"/>
<path d="M30.1731 93.1668L43.0731 111.083H32.3231L19.4231 93.1668H30.1731Z" fill="white"/>
<path d="M186.406 93.1668C186.406 49.8086 151.289 14.3336 107.573 14.3336C63.8567 14.3336 28.7394 49.8082 28.7394 93.1668H186.406Z" fill="#6C1827"/>
<path d="M175.656 93.1668C175.656 49.8086 142.689 14.3336 102.198 14.3336C61.7067 14.3336 28.7394 49.8082 28.7394 93.1668H175.656Z" fill="#9E373B"/>
<path d="M107.573 14.3332C108.648 14.3332 109.365 14.3332 110.44 14.3332C71.0231 15.7668 39.4894 50.525 39.4894 93.1668H28.7394C28.7394 49.8082 64.2144 14.3332 107.573 14.3332Z" fill="white"/>
<path d="M80.1206 186H40V133.99L41.0698 133.19C42.1396 132.39 64.6071 115.32 77.4457 124.922C81.7251 128.122 87.0747 129.723 92.6915 129.723H103.123C110.88 129.723 118.101 133.457 122.381 139.591C124.788 143.058 125.323 145.992 123.986 148.393C130.672 148.393 137.894 147.859 141.104 145.992L164.106 131.856C175.875 125.722 180.69 125.722 185.504 132.123C187.911 135.324 187.376 140.124 184.167 142.791L143.779 174.798C141.104 177.198 138.162 178.798 134.952 179.332C133.882 179.598 132.545 179.865 131.207 179.865L96.4366 185.2C91.087 185.466 85.4701 186 80.1206 186ZM45.3495 180.666H80.1206C85.2025 180.666 90.552 180.399 95.6338 179.599L130.94 174.264C132.01 174.264 132.812 174.264 133.882 173.998H134.15C136.29 173.731 138.162 172.664 140.034 171.064L140.301 170.797L180.957 139.325C182.027 138.524 182.027 136.924 181.492 136.124C179.352 132.923 178.282 131.59 167.049 137.191L144.046 151.327C137.894 154.527 126.126 154.794 113.554 154.527C113.019 154.527 112.484 154.527 112.217 154.527C110.612 154.527 109.542 154.527 108.74 154.527L109.007 149.193C109.81 149.193 110.88 149.193 111.95 149.193C115.427 148.926 118.636 148.393 119.439 147.059C119.706 146.526 119.439 144.925 118.369 143.325C114.892 137.991 109.275 135.324 103.123 135.324H92.6919C86.0052 135.324 79.3182 133.19 74.2364 129.456C66.7473 123.588 51.7688 132.123 45.3495 136.657V180.666Z" fill="#1D1D29"/>
<path d="M46 194H27V125H46V194ZM32.4284 188.692H40.5713V130.308H32.4284V188.692V188.692Z" fill="#1D1D29"/>
<path d="M77.6114 163C76.0445 163 75 161.88 75 160.2C75 153.2 79.9617 149 88.0575 149H113.389C114.956 149 116 150.12 116 151.8C116 153.48 114.956 154.6 113.389 154.6H88.0575C80.223 154.6 80.223 158.8 80.223 160.2C80.223 161.88 79.1783 163 77.6114 163Z" fill="#1D1D29"/>
<path d="M184.256 114.667H30.8895C29.8145 114.667 28.7395 113.95 28.0227 113.234L15.1226 95.3168C14.4058 94.2418 14.4058 92.8086 14.7645 91.7336C15.1226 90.6586 16.5563 89.5836 17.9895 89.5836H197.156C198.589 89.5836 199.664 90.3004 200.381 91.3754C201.098 92.4504 200.739 93.8836 200.023 94.9586L187.123 112.875C186.764 113.95 185.689 114.667 184.256 114.667ZM32.6813 107.5H182.464L189.989 96.75H25.1563L32.6813 107.5Z" fill="#1D1D29"/>
<path d="M107.573 17.9168C105.423 17.9168 103.99 16.4836 103.99 14.3336V3.58362C103.99 1.43362 105.423 0.000427246 107.573 0.000427246C109.723 0.000427246 111.156 1.43362 111.156 3.58362V14.3336C111.156 16.4832 109.723 17.9168 107.573 17.9168Z" fill="black"/>
<path d="M118.323 7.16681H96.8231C94.6731 7.16681 93.2399 5.73361 93.2399 3.58361C93.2399 1.43361 94.6731 0 96.8231 0H118.323C120.473 0 121.906 1.43319 121.906 3.58319C121.906 5.73319 120.473 7.16681 118.323 7.16681Z" fill="#1D1D29"/>
<path d="M186.406 96.75H28.7395C26.5895 96.75 25.1563 95.3168 25.1563 93.1668C25.1563 47.6582 62.0645 10.75 107.573 10.75C153.082 10.75 189.989 47.6582 189.989 93.1668C189.989 95.3168 188.556 96.75 186.406 96.75ZM32.3231 89.5832H182.823C181.031 49.8082 148.065 17.9164 107.573 17.9164C67.4395 17.9168 34.4731 49.8082 32.3231 89.5832Z" fill="#1D1D29"/>
<path d="M51.6731 64.5C50.9562 64.5 50.5981 64.5 49.8812 64.1418C48.0894 63.0668 47.7312 60.9168 48.4481 59.125C60.9894 37.9832 83.5644 25.0832 107.573 25.0832C109.723 25.0832 111.156 26.5164 111.156 28.6664C111.156 30.8164 109.723 32.2496 107.573 32.2496C86.0731 32.2496 65.6481 44.0746 54.898 62.7078C54.1812 63.7832 53.1062 64.5 51.6731 64.5Z" fill="#1D1D29"/>
</svg>
