<svg width="187" height="115" viewBox="0 0 187 115" fill="none" xmlns="http://www.w3.org/2000/svg">
<path d="M183.156 93.1668H3.98944L16.8894 111.083H170.256L183.156 93.1668Z" fill="#6C1827"/>
<path d="M172.406 93.1668H3.98944L16.8894 111.083H159.506L172.406 93.1668Z" fill="#9E373B"/>
<path d="M16.1731 93.1668L29.0731 111.083H18.3231L5.42307 93.1668H16.1731Z" fill="white"/>
<path d="M172.406 93.1668C172.406 49.8086 137.289 14.3336 93.5731 14.3336C49.8567 14.3336 14.7394 49.8082 14.7394 93.1668H172.406Z" fill="#6C1827"/>
<path d="M161.656 93.1668C161.656 49.8086 128.689 14.3336 88.1981 14.3336C47.7067 14.3336 14.7394 49.8082 14.7394 93.1668H161.656Z" fill="#9E373B"/>
<path d="M93.5731 14.3332C94.648 14.3332 95.3649 14.3332 96.4399 14.3332C57.0231 15.7668 25.4894 50.525 25.4894 93.1668H14.7394C14.7394 49.8082 50.2144 14.3332 93.5731 14.3332Z" fill="white"/>
<path d="M170.256 114.667H16.8895C15.8145 114.667 14.7395 113.95 14.0227 113.234L1.12265 95.3168C0.405843 94.2418 0.405843 92.8086 0.764456 91.7336C1.12265 90.6586 2.55626 89.5836 3.98946 89.5836H183.156C184.589 89.5836 185.664 90.3004 186.381 91.3754C187.098 92.4504 186.739 93.8836 186.023 94.9586L173.123 112.875C172.764 113.95 171.689 114.667 170.256 114.667ZM18.6813 107.5H168.464L175.989 96.75H11.1563L18.6813 107.5Z" fill="#1D1D29"/>
<path d="M93.5731 17.9168C91.4231 17.9168 89.9899 16.4836 89.9899 14.3336V3.58362C89.9899 1.43362 91.4231 0.000427246 93.5731 0.000427246C95.7231 0.000427246 97.1562 1.43362 97.1562 3.58362V14.3336C97.1562 16.4832 95.7231 17.9168 93.5731 17.9168Z" fill="black"/>
<path d="M104.323 7.16681H82.8231C80.6731 7.16681 79.2399 5.73361 79.2399 3.58361C79.2399 1.43361 80.6731 0 82.8231 0H104.323C106.473 0 107.906 1.43319 107.906 3.58319C107.906 5.73319 106.473 7.16681 104.323 7.16681Z" fill="#1D1D29"/>
<path d="M172.406 96.75H14.7395C12.5895 96.75 11.1563 95.3168 11.1563 93.1668C11.1563 47.6582 48.0645 10.75 93.5731 10.75C139.082 10.75 175.989 47.6582 175.989 93.1668C175.989 95.3168 174.556 96.75 172.406 96.75ZM18.3231 89.5832H168.823C167.031 49.8082 134.065 17.9164 93.5731 17.9164C53.4395 17.9168 20.4731 49.8082 18.3231 89.5832Z" fill="#1D1D29"/>
<path d="M37.6731 64.5C36.9562 64.5 36.5981 64.5 35.8812 64.1418C34.0894 63.0668 33.7312 60.9168 34.4481 59.125C46.9894 37.9832 69.5644 25.0832 93.5731 25.0832C95.7231 25.0832 97.1563 26.5164 97.1563 28.6664C97.1563 30.8164 95.7231 32.2496 93.5731 32.2496C72.0731 32.2496 51.6481 44.0746 40.898 62.7078C40.1812 63.7832 39.1062 64.5 37.6731 64.5Z" fill="#1D1D29"/>
</svg>
