<svg width="262" height="262" viewBox="0 0 262 262" fill="none" xmlns="http://www.w3.org/2000/svg">
<g filter="url(#filter0_d)">
<g filter="url(#filter1_d)">
<path d="M175.588 163.729L157.119 145.013L154.764 147.398L146.763 139.567C150.86 133.799 153.302 126.749 153.302 119.117C153.302 99.7542 137.757 84 118.651 84C99.5451 84 84 99.7542 84 119.117C84 138.48 99.5451 154.234 118.651 154.234C126.66 154.234 134.024 151.44 139.9 146.796L147.766 154.493L145.454 156.836L163.922 175.552C165.479 177.13 167.55 178 169.755 178C171.959 178 174.03 177.13 175.588 175.552C178.803 172.294 178.803 166.988 175.588 163.729ZM87.3001 119.117C87.3001 101.597 101.363 87.3445 118.651 87.3445C135.939 87.3445 150.002 101.597 150.002 119.117C150.002 126.577 147.434 133.431 143.172 138.858C142.669 139.5 142.133 140.109 141.587 140.707C141.422 140.888 141.267 141.077 141.097 141.253C140.577 141.796 140.029 142.301 139.478 142.799C139.194 143.057 138.927 143.331 138.633 143.577L138.552 143.645C133.135 148.167 126.2 150.888 118.651 150.888C101.363 150.89 87.3001 136.637 87.3001 119.117Z" fill="#FFD312"/>
<path d="M140.848 140.033C140.749 140.141 140.679 140.222 140.617 140.294C140.538 140.384 140.472 140.46 140.378 140.557L140.374 140.561C139.881 141.077 139.356 141.562 138.807 142.058L138.806 142.059C138.659 142.192 138.542 142.304 138.436 142.405C138.287 142.548 138.158 142.671 137.991 142.81L137.986 142.814L137.911 142.878C137.91 142.879 137.909 142.879 137.908 142.88C132.663 147.258 125.954 149.888 118.651 149.888C101.928 149.89 88.3001 136.097 88.3001 119.117C88.3001 102.137 101.928 88.3445 118.651 88.3445C135.374 88.3445 149.002 102.137 149.002 119.117C149.002 126.343 146.516 132.982 142.386 138.24L142.385 138.241C141.905 138.854 141.388 139.442 140.848 140.033ZM140.848 140.033L141.587 140.707M140.848 140.033C140.848 140.033 140.848 140.033 140.848 140.033L141.587 140.707M141.587 140.707C142.133 140.109 142.669 139.5 143.172 138.858C147.434 133.431 150.002 126.577 150.002 119.117C150.002 101.597 135.939 87.3445 118.651 87.3445C101.363 87.3445 87.3001 101.597 87.3001 119.117C87.3001 136.637 101.363 150.89 118.651 150.888C126.2 150.888 133.135 148.167 138.552 143.645L138.633 143.577C138.816 143.424 138.989 143.26 139.162 143.095C139.266 142.996 139.371 142.896 139.478 142.799C140.029 142.301 140.577 141.796 141.097 141.253C141.2 141.146 141.297 141.035 141.395 140.923C141.458 140.851 141.522 140.778 141.587 140.707ZM157.83 144.311L157.119 143.59L156.407 144.311L154.752 145.987L148.066 139.443C151.983 133.648 154.302 126.658 154.302 119.117C154.302 99.2145 138.322 83 118.651 83C98.9803 83 83 99.2145 83 119.117C83 139.02 98.9803 155.234 118.651 155.234C126.583 155.234 133.899 152.571 139.822 148.119L146.349 154.506L144.743 156.134L144.05 156.836L144.743 157.538L163.21 176.254C164.954 178.022 167.281 179 169.755 179C172.229 179 174.555 178.022 176.299 176.254C179.9 172.607 179.899 166.675 176.299 163.027L175.588 163.729L176.299 163.027L157.83 144.311Z" stroke="#1D1D29" stroke-width="2"/>
</g>
<path d="M118.651 92.189C133.271 92.189 145.202 104.251 145.202 119.117C145.202 133.983 133.271 146.045 118.651 146.045C104.031 146.045 92.1002 133.983 92.1002 119.117C92.1002 104.251 104.031 92.189 118.651 92.189Z" fill="#9E373B" stroke="#FFD312" stroke-width="3"/>
<path d="M129.932 108.862C129.245 108.175 128.135 108.175 127.448 108.862L118.835 117.458L110.222 108.845C109.535 108.158 108.426 108.158 107.739 108.845C107.052 109.532 107.052 110.641 107.739 111.328L116.352 119.941L107.739 128.554C107.052 129.241 107.052 130.351 107.739 131.038C108.426 131.725 109.535 131.725 110.222 131.038L118.835 122.425L127.448 131.038C128.135 131.725 129.245 131.725 129.932 131.038C130.619 130.351 130.619 129.241 129.932 128.554L121.319 119.941L129.932 111.328C130.601 110.659 130.601 109.532 129.932 108.862Z" fill="#F6E535"/>
</g>
<defs>
<filter id="filter0_d" x="77" y="77" width="108" height="108" filterUnits="userSpaceOnUse" color-interpolation-filters="sRGB">
<feFlood flood-opacity="0" result="BackgroundImageFix"/>
<feColorMatrix in="SourceAlpha" type="matrix" values="0 0 0 0 0 0 0 0 0 0 0 0 0 0 0 0 0 0 127 0" result="hardAlpha"/>
<feOffset/>
<feGaussianBlur stdDeviation="2.5"/>
<feComposite in2="hardAlpha" operator="out"/>
<feColorMatrix type="matrix" values="0 0 0 0 0 0 0 0 0 0 0 0 0 0 0 0 0 0 1 0"/>
<feBlend mode="normal" in2="BackgroundImageFix" result="effect1_dropShadow"/>
<feBlend mode="normal" in="SourceGraphic" in2="effect1_dropShadow" result="shape"/>
</filter>
<filter id="filter1_d" x="0" y="0" width="262" height="262" filterUnits="userSpaceOnUse" color-interpolation-filters="sRGB">
<feFlood flood-opacity="0" result="BackgroundImageFix"/>
<feColorMatrix in="SourceAlpha" type="matrix" values="0 0 0 0 0 0 0 0 0 0 0 0 0 0 0 0 0 0 127 0" result="hardAlpha"/>
<feOffset/>
<feGaussianBlur stdDeviation="41"/>
<feComposite in2="hardAlpha" operator="out"/>
<feColorMatrix type="matrix" values="0 0 0 0 0 0 0 0 0 0 0 0 0 0 0 0 0 0 0.25 0"/>
<feBlend mode="normal" in2="BackgroundImageFix" result="effect1_dropShadow"/>
<feBlend mode="normal" in="SourceGraphic" in2="effect1_dropShadow" result="shape"/>
</filter>
</defs>
</svg>
